<mxfile host="app.diagrams.net" modified="2021-09-22T12:28:13.708Z" agent="5.0 (Windows NT 10.0; Win64; x64) AppleWebKit/537.36 (KHTML, like Gecko) Chrome/93.0.4577.82 Safari/537.36" etag="MwdC3WHME_DBPZdmdzsa" version="15.2.9" type="github">
  <diagram id="PYpE6oL168dghffFzByK" name="Page-1">
    <mxGraphModel dx="865" dy="486" grid="1" gridSize="10" guides="1" tooltips="1" connect="1" arrows="1" fold="1" page="1" pageScale="1" pageWidth="827" pageHeight="1169" math="0" shadow="0">
      <root>
        <mxCell id="0" />
        <mxCell id="1" parent="0" />
        <mxCell id="Jz1yEFnl1scGtVn9OjaA-24" style="edgeStyle=orthogonalEdgeStyle;rounded=1;orthogonalLoop=1;jettySize=auto;html=1;exitX=0.25;exitY=1;exitDx=0;exitDy=0;strokeWidth=2;shape=link;shadow=0;sketch=0;strokeColor=#FFA14F;" edge="1" parent="1" source="Jz1yEFnl1scGtVn9OjaA-1" target="Jz1yEFnl1scGtVn9OjaA-2">
          <mxGeometry relative="1" as="geometry" />
        </mxCell>
        <mxCell id="Jz1yEFnl1scGtVn9OjaA-25" style="edgeStyle=orthogonalEdgeStyle;rounded=1;orthogonalLoop=1;jettySize=auto;html=1;exitX=0.75;exitY=1;exitDx=0;exitDy=0;entryX=0.5;entryY=0;entryDx=0;entryDy=0;strokeWidth=2;shape=link;shadow=0;sketch=0;strokeColor=#FFA14F;" edge="1" parent="1" source="Jz1yEFnl1scGtVn9OjaA-1" target="Jz1yEFnl1scGtVn9OjaA-4">
          <mxGeometry relative="1" as="geometry" />
        </mxCell>
        <mxCell id="Jz1yEFnl1scGtVn9OjaA-1" value="HTML" style="rounded=0;whiteSpace=wrap;html=1;fillColor=#E8380C;strokeColor=#82b366;" vertex="1" parent="1">
          <mxGeometry x="380" y="30" width="84" height="30" as="geometry" />
        </mxCell>
        <mxCell id="Jz1yEFnl1scGtVn9OjaA-26" style="edgeStyle=orthogonalEdgeStyle;rounded=1;orthogonalLoop=1;jettySize=auto;html=1;exitX=0.5;exitY=1;exitDx=0;exitDy=0;entryX=0.5;entryY=0;entryDx=0;entryDy=0;strokeWidth=2;shape=link;shadow=0;sketch=0;strokeColor=#FFF017;" edge="1" parent="1" source="Jz1yEFnl1scGtVn9OjaA-2" target="Jz1yEFnl1scGtVn9OjaA-3">
          <mxGeometry relative="1" as="geometry" />
        </mxCell>
        <mxCell id="Jz1yEFnl1scGtVn9OjaA-2" value="head" style="rounded=0;whiteSpace=wrap;html=1;fillColor=#FF8000;strokeColor=#82b366;" vertex="1" parent="1">
          <mxGeometry x="320" y="100" width="84" height="30" as="geometry" />
        </mxCell>
        <mxCell id="Jz1yEFnl1scGtVn9OjaA-3" value="title" style="rounded=0;whiteSpace=wrap;html=1;fillColor=#FFF83B;strokeColor=#82b366;" vertex="1" parent="1">
          <mxGeometry x="270" y="170" width="84" height="30" as="geometry" />
        </mxCell>
        <mxCell id="Jz1yEFnl1scGtVn9OjaA-27" style="edgeStyle=orthogonalEdgeStyle;rounded=1;orthogonalLoop=1;jettySize=auto;html=1;exitX=0.106;exitY=1.018;exitDx=0;exitDy=0;entryX=0.5;entryY=0;entryDx=0;entryDy=0;strokeWidth=2;shape=link;shadow=0;sketch=0;exitPerimeter=0;strokeColor=#FFF017;" edge="1" parent="1" source="Jz1yEFnl1scGtVn9OjaA-4" target="Jz1yEFnl1scGtVn9OjaA-5">
          <mxGeometry relative="1" as="geometry" />
        </mxCell>
        <mxCell id="Jz1yEFnl1scGtVn9OjaA-28" style="edgeStyle=orthogonalEdgeStyle;rounded=1;orthogonalLoop=1;jettySize=auto;html=1;exitX=0.25;exitY=1;exitDx=0;exitDy=0;entryX=0.553;entryY=0.026;entryDx=0;entryDy=0;strokeWidth=2;shape=link;shadow=0;sketch=0;entryPerimeter=0;strokeColor=#FFF017;" edge="1" parent="1" source="Jz1yEFnl1scGtVn9OjaA-4" target="Jz1yEFnl1scGtVn9OjaA-6">
          <mxGeometry relative="1" as="geometry">
            <Array as="points">
              <mxPoint x="461" y="160" />
              <mxPoint x="470" y="160" />
              <mxPoint x="470" y="211" />
            </Array>
          </mxGeometry>
        </mxCell>
        <mxCell id="Jz1yEFnl1scGtVn9OjaA-30" style="edgeStyle=orthogonalEdgeStyle;rounded=1;orthogonalLoop=1;jettySize=auto;html=1;exitX=0.5;exitY=1;exitDx=0;exitDy=0;entryX=0.5;entryY=0;entryDx=0;entryDy=0;strokeWidth=2;shape=link;shadow=0;sketch=0;strokeColor=#FFF017;" edge="1" parent="1" source="Jz1yEFnl1scGtVn9OjaA-4" target="Jz1yEFnl1scGtVn9OjaA-8">
          <mxGeometry relative="1" as="geometry">
            <Array as="points">
              <mxPoint x="482" y="160" />
              <mxPoint x="556" y="160" />
            </Array>
          </mxGeometry>
        </mxCell>
        <mxCell id="Jz1yEFnl1scGtVn9OjaA-32" style="edgeStyle=orthogonalEdgeStyle;rounded=1;orthogonalLoop=1;jettySize=auto;html=1;exitX=0.75;exitY=1;exitDx=0;exitDy=0;entryX=0.5;entryY=0;entryDx=0;entryDy=0;strokeWidth=2;shape=link;shadow=0;sketch=0;strokeColor=#FFF017;" edge="1" parent="1" source="Jz1yEFnl1scGtVn9OjaA-4" target="Jz1yEFnl1scGtVn9OjaA-7">
          <mxGeometry relative="1" as="geometry">
            <Array as="points">
              <mxPoint x="503" y="140" />
              <mxPoint x="622" y="140" />
            </Array>
          </mxGeometry>
        </mxCell>
        <mxCell id="Jz1yEFnl1scGtVn9OjaA-4" value="body" style="rounded=0;whiteSpace=wrap;html=1;fillColor=#FF8000;strokeColor=#82b366;" vertex="1" parent="1">
          <mxGeometry x="440" y="100" width="84" height="30" as="geometry" />
        </mxCell>
        <mxCell id="Jz1yEFnl1scGtVn9OjaA-5" value="h1" style="rounded=0;whiteSpace=wrap;html=1;fillColor=#FFF83B;strokeColor=#82b366;" vertex="1" parent="1">
          <mxGeometry x="372" y="170" width="84" height="30" as="geometry" />
        </mxCell>
        <mxCell id="Jz1yEFnl1scGtVn9OjaA-6" value="h2" style="rounded=0;whiteSpace=wrap;html=1;fillColor=#FFF83B;strokeColor=#82b366;" vertex="1" parent="1">
          <mxGeometry x="420" y="210" width="84" height="30" as="geometry" />
        </mxCell>
        <mxCell id="Jz1yEFnl1scGtVn9OjaA-33" style="edgeStyle=orthogonalEdgeStyle;rounded=1;orthogonalLoop=1;jettySize=auto;html=1;exitX=0;exitY=1;exitDx=0;exitDy=0;strokeWidth=2;shape=link;shadow=0;sketch=0;strokeColor=#B0FFB3;" edge="1" parent="1" source="Jz1yEFnl1scGtVn9OjaA-7" target="Jz1yEFnl1scGtVn9OjaA-10">
          <mxGeometry relative="1" as="geometry" />
        </mxCell>
        <mxCell id="Jz1yEFnl1scGtVn9OjaA-39" style="edgeStyle=orthogonalEdgeStyle;rounded=1;orthogonalLoop=1;jettySize=auto;html=1;exitX=0.25;exitY=1;exitDx=0;exitDy=0;entryX=1;entryY=0.5;entryDx=0;entryDy=0;strokeWidth=2;shape=link;shadow=0;sketch=0;strokeColor=#B0FFB3;" edge="1" parent="1" source="Jz1yEFnl1scGtVn9OjaA-7" target="Jz1yEFnl1scGtVn9OjaA-34">
          <mxGeometry relative="1" as="geometry">
            <Array as="points">
              <mxPoint x="590" y="240" />
              <mxPoint x="590" y="335" />
            </Array>
          </mxGeometry>
        </mxCell>
        <mxCell id="Jz1yEFnl1scGtVn9OjaA-40" style="edgeStyle=orthogonalEdgeStyle;rounded=1;orthogonalLoop=1;jettySize=auto;html=1;exitX=0.5;exitY=1;exitDx=0;exitDy=0;entryX=1;entryY=0.5;entryDx=0;entryDy=0;strokeWidth=2;shape=link;shadow=0;sketch=0;strokeColor=#B0FFB3;" edge="1" parent="1" source="Jz1yEFnl1scGtVn9OjaA-7" target="Jz1yEFnl1scGtVn9OjaA-36">
          <mxGeometry relative="1" as="geometry">
            <Array as="points">
              <mxPoint x="600" y="240" />
              <mxPoint x="600" y="375" />
            </Array>
          </mxGeometry>
        </mxCell>
        <mxCell id="Jz1yEFnl1scGtVn9OjaA-41" style="edgeStyle=orthogonalEdgeStyle;rounded=1;orthogonalLoop=1;jettySize=auto;html=1;exitX=1;exitY=1;exitDx=0;exitDy=0;strokeWidth=2;shape=link;shadow=0;sketch=0;strokeColor=#B0FFB3;" edge="1" parent="1" source="Jz1yEFnl1scGtVn9OjaA-7" target="Jz1yEFnl1scGtVn9OjaA-38">
          <mxGeometry relative="1" as="geometry" />
        </mxCell>
        <mxCell id="Jz1yEFnl1scGtVn9OjaA-45" style="edgeStyle=orthogonalEdgeStyle;rounded=1;orthogonalLoop=1;jettySize=auto;html=1;exitX=0.75;exitY=1;exitDx=0;exitDy=0;entryX=0;entryY=0.5;entryDx=0;entryDy=0;strokeWidth=2;shape=link;shadow=0;sketch=0;strokeColor=#B0FFB3;" edge="1" parent="1" source="Jz1yEFnl1scGtVn9OjaA-7" target="Jz1yEFnl1scGtVn9OjaA-42">
          <mxGeometry relative="1" as="geometry">
            <Array as="points">
              <mxPoint x="650" y="240" />
              <mxPoint x="650" y="335" />
            </Array>
          </mxGeometry>
        </mxCell>
        <mxCell id="Jz1yEFnl1scGtVn9OjaA-46" style="edgeStyle=orthogonalEdgeStyle;rounded=1;orthogonalLoop=1;jettySize=auto;html=1;exitX=0.5;exitY=1;exitDx=0;exitDy=0;entryX=0;entryY=0.5;entryDx=0;entryDy=0;strokeWidth=2;shape=link;shadow=0;sketch=0;strokeColor=#B0FFB3;" edge="1" parent="1" source="Jz1yEFnl1scGtVn9OjaA-7" target="Jz1yEFnl1scGtVn9OjaA-43">
          <mxGeometry relative="1" as="geometry">
            <Array as="points">
              <mxPoint x="640" y="240" />
              <mxPoint x="640" y="375" />
            </Array>
          </mxGeometry>
        </mxCell>
        <mxCell id="Jz1yEFnl1scGtVn9OjaA-48" value="" style="edgeStyle=orthogonalEdgeStyle;rounded=1;orthogonalLoop=1;jettySize=auto;html=1;entryX=0.5;entryY=0;entryDx=0;entryDy=0;strokeWidth=2;shape=link;shadow=0;sketch=0;strokeColor=#B0FFB3;" edge="1" parent="1" source="Jz1yEFnl1scGtVn9OjaA-7" target="Jz1yEFnl1scGtVn9OjaA-44">
          <mxGeometry relative="1" as="geometry">
            <mxPoint x="622" y="320" as="targetPoint" />
          </mxGeometry>
        </mxCell>
        <mxCell id="Jz1yEFnl1scGtVn9OjaA-7" value="div" style="rounded=0;whiteSpace=wrap;html=1;fillColor=#FFF83B;strokeColor=#82b366;" vertex="1" parent="1">
          <mxGeometry x="580" y="210" width="84" height="30" as="geometry" />
        </mxCell>
        <mxCell id="Jz1yEFnl1scGtVn9OjaA-8" value="p" style="rounded=0;whiteSpace=wrap;html=1;fillColor=#FFF83B;strokeColor=#82b366;" vertex="1" parent="1">
          <mxGeometry x="514" y="170" width="84" height="30" as="geometry" />
        </mxCell>
        <mxCell id="Jz1yEFnl1scGtVn9OjaA-10" value="p" style="rounded=0;whiteSpace=wrap;html=1;fillColor=#40E6FF;strokeColor=#82b366;" vertex="1" parent="1">
          <mxGeometry x="496" y="280" width="84" height="30" as="geometry" />
        </mxCell>
        <mxCell id="Jz1yEFnl1scGtVn9OjaA-18" style="edgeStyle=orthogonalEdgeStyle;rounded=0;orthogonalLoop=1;jettySize=auto;html=1;exitX=0.5;exitY=1;exitDx=0;exitDy=0;" edge="1" parent="1" source="Jz1yEFnl1scGtVn9OjaA-4" target="Jz1yEFnl1scGtVn9OjaA-4">
          <mxGeometry relative="1" as="geometry" />
        </mxCell>
        <mxCell id="Jz1yEFnl1scGtVn9OjaA-34" value="p" style="rounded=0;whiteSpace=wrap;html=1;fillColor=#40E6FF;strokeColor=#82b366;" vertex="1" parent="1">
          <mxGeometry x="496" y="320" width="84" height="30" as="geometry" />
        </mxCell>
        <mxCell id="Jz1yEFnl1scGtVn9OjaA-36" value="p" style="rounded=0;whiteSpace=wrap;html=1;fillColor=#40E6FF;strokeColor=#82b366;" vertex="1" parent="1">
          <mxGeometry x="496" y="360" width="84" height="30" as="geometry" />
        </mxCell>
        <mxCell id="Jz1yEFnl1scGtVn9OjaA-38" value="p" style="rounded=0;whiteSpace=wrap;html=1;fillColor=#40E6FF;strokeColor=#82b366;" vertex="1" parent="1">
          <mxGeometry x="664" y="280" width="84" height="30" as="geometry" />
        </mxCell>
        <mxCell id="Jz1yEFnl1scGtVn9OjaA-42" value="p" style="rounded=0;whiteSpace=wrap;html=1;fillColor=#40E6FF;strokeColor=#82b366;" vertex="1" parent="1">
          <mxGeometry x="664" y="320" width="84" height="30" as="geometry" />
        </mxCell>
        <mxCell id="Jz1yEFnl1scGtVn9OjaA-43" value="p" style="rounded=0;whiteSpace=wrap;html=1;fillColor=#40E6FF;strokeColor=#82b366;" vertex="1" parent="1">
          <mxGeometry x="664" y="360" width="84" height="30" as="geometry" />
        </mxCell>
        <mxCell id="Jz1yEFnl1scGtVn9OjaA-44" value="p" style="rounded=0;whiteSpace=wrap;html=1;fillColor=#40E6FF;strokeColor=#82b366;" vertex="1" parent="1">
          <mxGeometry x="580" y="410" width="84" height="30" as="geometry" />
        </mxCell>
      </root>
    </mxGraphModel>
  </diagram>
</mxfile>
